<?xml version="1.0" standalone="no"?>
<!DOCTYPE svg PUBLIC "-//W3C//DTD SVG 20010904//EN"
 "http://www.w3.org/TR/2001/REC-SVG-20010904/DTD/svg10.dtd">
<svg version="1.0" xmlns="http://www.w3.org/2000/svg"
 width="2000.000000pt" height="2000.000000pt" viewBox="0 0 2000.000000 2000.000000"
 preserveAspectRatio="xMidYMid meet">
<metadata>
Created by potrace 1.11, written by Peter Selinger 2001-2013
</metadata>
<g transform="translate(0.000000,2000.000000) scale(0.100000,-0.100000)"
fill="#000000" stroke="none">
<path d="M12565 17264 c-71 -19 -249 -39 -428 -49 -56 -3 -120 -7 -142 -10
-22 -2 -85 -7 -140 -10 -55 -3 -134 -8 -175 -10 -235 -14 -421 -25 -540 -30
-207 -9 -347 -16 -435 -20 -49 -3 -151 -7 -225 -10 -74 -3 -180 -7 -235 -10
-55 -3 -149 -7 -210 -10 -60 -3 -144 -8 -185 -10 -41 -3 -115 -7 -165 -10
-346 -20 -611 -53 -794 -100 -353 -90 -738 -329 -1058 -657 -188 -192 -273
-304 -483 -638 -57 -92 -140 -183 -184 -204 -84 -40 -154 -10 -278 119 -130
137 -392 357 -548 463 -159 107 -284 153 -465 170 -91 9 -505 8 -560 -2 -16
-3 -70 -10 -120 -16 -465 -58 -975 -270 -1500 -623 -163 -110 -498 -356 -525
-387 -3 -3 -39 -32 -80 -65 -64 -51 -275 -229 -290 -245 -3 -3 -23 -20 -45
-39 -41 -35 -194 -173 -249 -225 -17 -15 -71 -66 -121 -111 -49 -46 -111 -103
-136 -127 -50 -47 -74 -68 -219 -198 -52 -47 -117 -106 -145 -131 -107 -99
-376 -329 -495 -423 -194 -154 -265 -229 -342 -361 -98 -170 -220 -605 -243
-870 -18 -212 -58 -345 -182 -604 -35 -74 -66 -144 -68 -155 -4 -13 38 -126
105 -291 61 -148 159 -387 217 -530 57 -143 111 -273 118 -290 13 -28 125
-302 252 -615 92 -226 274 -673 288 -705 19 -43 88 -211 215 -525 62 -151 118
-288 125 -305 7 -16 48 -115 90 -220 43 -104 103 -253 135 -330 32 -77 209
-507 393 -955 463 -1127 676 -1641 687 -1665 5 -11 37 -87 71 -170 158 -387
423 -1027 554 -1340 254 -606 402 -920 458 -973 30 -29 39 -33 70 -27 70 13
294 156 987 630 374 256 868 585 1225 817 766 496 1706 1050 2655 1563 345
187 358 193 495 268 66 35 149 80 185 99 36 19 94 51 130 70 36 19 128 69 205
111 l140 75 445 7 c245 3 481 8 525 10 577 28 798 125 1310 574 66 58 122 108
125 111 3 3 43 39 90 80 47 41 87 77 90 80 10 10 185 156 228 189 36 28 61 37
140 52 85 16 534 102 587 113 16 3 550 108 615 121 432 84 822 161 915 180
143 29 793 155 1130 220 132 25 251 48 265 51 143 27 521 98 735 138 232 43
488 90 550 101 17 3 149 25 295 50 328 57 581 107 725 145 224 60 236 66 264
129 25 59 38 117 46 202 4 35 8 75 11 89 6 35 5 479 -1 515 -39 219 -89 304
-353 605 -104 119 -119 136 -187 215 -33 38 -66 77 -74 85 -44 46 -174 217
-215 283 -96 154 -107 208 -111 527 -2 140 -4 258 -4 262 -1 7 -26 33 -515
531 -204 208 -424 433 -489 500 -66 67 -298 304 -516 527 -219 223 -429 437
-467 476 -38 40 -238 244 -444 454 -206 210 -418 426 -470 479 -52 54 -271
277 -486 497 -215 219 -480 491 -590 603 -376 385 -1269 1278 -1389 1388 -333
308 -432 364 -570 327z"/>
</g>
</svg>
